<svg xmlns="http://www.w3.org/2000/svg" display="block" viewBox="0 0 1024 1024">
  <path fill="#44ad79" d="M339 4h8l24 5 35 9 64 16 64 16 60 15 47 12 28 7 48 12 71 18 24 6 42 11h13l11-5 12-3h8l12 3 14 8 14 12 7 6 18 5 25 6 5 4v7l-5 6-13 8-16 8-4 3h-2l4 54 4 34 5 5 11 11 6 10 2 9v10l-3 11-2 4v6l10 19 9 21 6 18 5 20 4 23 1 10v43l-5 10-9 10-9 6-9 4-20 4h-24l-13-4-8-7-8-16-5-17-5-26-2-23v-18l2-25 4-25 3-13v-6l-8-11-5-11-1-4v-14l4-11 9-13 3-4-1-21-2-19-2-22-2-7-3-1-14 7-13 7-21 12-14 7-8 5-11 6-23 12-6 5v17l4 35 3 39 3 7 9 10 7 8 12 14 11 13 15 20 11 18 12 23 9 21 9 27 7 27 6 26 5 16 10 21 9 14 11 14 9 10v2l4 2 2 4 4 2 14 9 15 8 4 5v9l-6 7-14 5-23 6-17 3-10 1h-20l-26-4-31-8v44l-1 22-3 23-4 21-6 19-7 16-11 20-7 9-4 3h-9l-5-5-14-28-11-19-10-13-6 20-6 16-13 27-10 16-12 16-11 13-8 7-7 1-7-3-6-10-7-15-11-21-12-18-7-10-2-1-3 9-8 16-8 14-10 14-2 3h-2l-2 5-7 7-7 8-10 10-8 7-14 10-9 4-5-1-5-4-5-13-2-6-5 6h-2l-2 4-17 17-7 6h-2l-2 4-13 10-13 10-18 11-13 6-6 1-7-2-7-8-6-20-7-34-1-6-11 6-13 8-15 8-15 6-27 9-17 4-7 1h-12l-7-4-2-3v-6l13-32 6-18 4-15 1-7-11 1-12 2-11 1h-31l-17-2-22-5-8-4-3-5 1-7 9-11 7-7 11-14 13-18 11-18 10-18 12-25 8-21 6-22 3-17v-21l-4-14-7-9-8-6-7-2h-9l-9 4-5 6-4 9-1 6v12l2 13 5 17 7 16-1 7-5 4h-12l-19-5-21-7-25-12-16-10-11-9-10-9-7-8-10-13-12-20-8-18-5-16-2-12-1-11v-25l3-21 8-24 9-16 9-12 12-13 12-12 11-9 15-12 21-14 17-11 1-16 4-14 8-16 8-14v-31l-2-47-4-4-26-8-27-8-25-8-39-12-32-10-28-8-12-5-4-5-1-7 5-8 39-26 28-19 25-17 33-22 14-10 12-8 28-19 25-17 12-8 25-17 17-12 22-15 33-22 9-4Z"/>
  <path fill="#a3efd3" d="M476 313h70l15 2 19 2 35 6 12 3 14 4 14 4 7 3 10 3 16 8 15 8 9 5 11 7 13 10 10 8 13 12 8 7 22 22 7 9 4 4 10 13 11 16 4 6 9 16v3h2l11 23 5 14 3 8 5 15 1 9h2l5 21 3 12 6 21 7 16 10 17 8 11 11 13 7 8 6 7h-23l-21-3-14-4-23-8-13-6-16-8-14-8-16-10-4-2 6 9 4 10 4 10 5 16 4 18 3 23v45l-3 30-5 19-5-4-7-11-9-12-7-9-9-10-15-15-11-9-19-14-2-1 6 18 1 11v35l-6 29-3 8-3 10h-2l-2 9-2 5h-2l-1 5-8 14-4 6-4-2-10-19-10-18-6-10-4-6v-2h-2l-4-7v-2h-2l-8-11-11-12-7-8-13-12-10-8 1 10 1 3v36l-5 26-3 9-3 9-7 15-9 16-7 9-9 11-5 5h-2l-4-22-4-18-3-10-2-5v-3l-3 3-5 10-9 16-4 5-8 12h-2l-2 5-7 8-9 11-7 8-5 5-4 2-2 4-10 9-13 10-5 4h-2l-3-17-1-10v-17h-2v-38l3-25 1-11-4 5-11 14-11 12-7 7-5 5-9 9-9 7-14 10-17 10-10 5-9 4h-4l1-10 3-13 3-12 5-20 3-10 5-19h2l2-11 7-17 5-10 2-3-11 9-7 6h-2v2l-14 9h-2v2l-16 9h-2v2l-20 8-15 5-10 2-7 2-14 1 1-5 6-8 6-9 6-10 5-9 11-21 6-15 4-9 4-10 4-16 3-12 3-18 1-10v-20l-2-12-5-16-7-10-5-7-12-9v-2l9-3 16-4 27-4 31-2h31l22 2 29 5 13 4 10 3 14 5 3 1-5-7v-2l-3-1-7-9-8-7-8-6v-2l-5-2-10-6-14-7-19-6-16-3-18-3-26-2h-36l-24 3-21 5-11 4-6 1v2l-13 5-13 8-12 9-5 4-7 8-8 11-6 16-1 7v20l2 13 1 7-4-1-16-9-14-12-10-10-10-13-10-17-6-13-5-18-1-8v-17l3-16 6-16 6-10 9-13h2l2-4 9-10 8-7 13-11 10-7 13-9 10-6 15-9 17-8 11-5 5-1v-2l-7-2-8-7-4-8v-10l3-8 6-10 5-7h2l2-4 9-10 14-12 13-10 5-3h2v-2l16-9 14-8 9-4 20-8 32-10 15-3 6-2 27-5 25-3Z"/>
  <path fill="#66e29e" d="M339 4h8l24 5 35 9 64 16 64 16 60 15 47 12 28 7 48 12 71 18 24 6 42 11h13l11-5 12-3h8l12 3 14 8 14 12 7 6 18 5 25 6 5 4v7l-5 6-13 8-16 8-4 3h-2l4 54 4 34 5 5 11 11 6 10 2 9v10l-3 11-2 4v6l10 19 9 21 6 18 5 20 4 23 1 10v43l-5 10-9 10-9 6-9 4-20 4h-24l-13-4-8-7-8-16-5-17-5-26-2-23v-18l2-25 4-25 3-13v-6l-8-11-5-11-1-4v-14l4-11 9-13 3-4-1-21-2-19-2-22-2-7-3-1-14 7-13 7-21 12-14 7-8 5-11 6-23 12-6 5v17l4 35 3 39 3 7 9 10 7 8 12 14 11 13 15 20 11 18 12 23 9 21 9 27 7 27 6 26 5 16 10 21 9 14 11 14 9 10v2l4 2 2 4 4 2 14 9 15 8 4 5v9l-6 7-14 5-23 6-17 3-10 1h-20l-26-4-31-8v44l-1 22-3 23-4 21-6 19-7 16-11 20-7 9-4 3h-9l-5-5-14-28-11-19-10-13-6 20-6 16-13 27-10 16-12 16-11 13-8 7-7 1-7-3-6-10-7-15-11-21-12-18-7-10-2-1-3 9-8 16-8 14-10 14-2 3h-2l-2 5-7 7-7 8-10 10-8 7-14 10-9 4-5-1-5-4-5-13-2-6-5 6h-2l-2 4-17 17-7 6h-2l-2 4-13 10-13 10-18 11-13 6-6 1-7-2-7-8-6-20-7-34-1-6-11 6-13 8-15 8-15 6-27 9-17 4-7 1h-12l-7-4-2-3v-6l13-32 6-18 4-15 1-7-11 1-12 2-11 1h-31l-17-2-22-5-8-4-3-5 1-7 9-11 7-7 11-14 13-18 11-18 10-18 12-25 8-21 6-22 3-17v-21l-4-14-7-9-8-6-7-2h-9l-9 4-5 6-4 9-1 6v12l2 13 5 17 7 16-1 7-5 4h-12l-19-5-21-7-25-12-16-10-11-9-10-9-7-8-10-13-12-20-8-18-5-16-2-12-1-11v-25l3-21 8-24 9-16 9-12 12-13 12-12 11-9 15-12 21-14 17-11 1-16 4-14 8-16 8-14v-31l-2-47-4-4-26-8-27-8-25-8-39-12-32-10-28-8-12-5-4-5-1-7 5-8 39-26 28-19 25-17 33-22 14-10 12-8 28-19 25-17 12-8 25-17 17-12 22-15 33-22 9-4Zm-4 8-9 3-10 5-7 4v2l-5 2-11 7v2l-5 2-12 8-10 7-12 8-11 8-6 4-15 10-15 10-2 1v2l-5 2-12 8-10 7-12 8-10 7-15 10-8 5v2l-5 2-13 9-15 10-15 10-11 8-14 9-10 7-16 11-6 4-10 7-7 6 1 5 9 5 24 7 16 5 21 6 12 2v2l12 3 8 3 26 8 13 4 8 1v2l15 4 9 3 9 2h4v2l8 2 2 4 1 8 2 60v18l-7 11-4 6-6 13-2 7-2 25-7 5-8 4-13 8-11 8-14 10-15 13-5 4v2l-4 2-1 3-4 2-8 10-4 4-9 14-6 13-6 19-2 11v37l2 16 2 9h2l1 8 4 9 8 16 7 10 5 8h2l2 5 5 5 12 12 13 10 10 6 15 7 13 5 14 5 11 3 5 2 5 1h9l1-5-2-2-4-16-2-3-3-16v-28l5-10 6-7 6-4 8-2h8l9 2 9 6 5 5 4 5 5 10 2 11v22l-2 15-3 9-4 17-3 8-8 20-10 21-12 21-7 11-7 10-13 17-9 10v2l-4 2-6 7-1 5 5 3 21 5 16 2h25l21-2 19-4h7v9l-3 13-4 15-6 19-4 10-6 14v5l3 2 14-1 29-7v-2l7-1 16-6 3-1v-2l9-3 15-9 5-3 16-10 5-2 2 10 3 16 2 11 2 6 3 15 7 16 5 1 6-2v-2l9-3 10-6 16-11 7-5v-2l5-2 17-16 18-18 7-8 3-3 5-1 2 4 3 10 4 12 6-1 11-7 11-9 12-11 13-14 7-9 11-17 8-16 5-10 7-14 4-1 1 3 5 5 8 10 6 9 6 11 2 4h2l3 9 5 10 1 3h2l1 6 2 5h2l2 5 1 1 7-1 8-8 7-9 3-3 7-10 6-9 6-11 3-5 4-10 3-6 4-10 2-10h2l4-17 3-13 5 2 5 6 9 12 8 13 5 9 6 12 8 16 4 2 5-4 7-10 10-19 5-12 1-9h2l4-19 1-10 1-1 2-16 1-15v-39l-1-23 1-2h10v2l19 4 5 2 33 5h23l12-2 17-3 13-3 11-4 3-3v-5l-5-4-9-4h-2v-2l-6-3h-2l-1-3-5-3-5-6-8-7-12-15-10-15-6-10-6-12-5-13-4-14-4-19-3-12-2-8h-2l-1-10-2-5-1-8-2-2-9-24-10-21-8-14-8-12-8-11-8-10-13-16-12-14-10-11-6-7-1-3-3-50-2-9-3-30v-10l5-6 16-8 12-7 11-6 10-5v-2l7-2 5-3 16-9 9-5 11-6 16-8 7 1 5 4 1 3 2 25 1 20 2 19v12l-4 4v2h-2l-7 12-2 6v11l3 9 5 8 7 7v8l-3 9-3 16-2 11-2 21v32l3 29 4 15 3 9 4 11 6 9 4 3 9 3 7 1-8 1 1 3h28l17-4v-2l6-1 9-6 8-9 4-8 1-5v-32l-2-22-7-34-2-6-3-10-4-10-1-3h-2l-2-9-11-22-1-1v-7l4-9v-21l-5-10-9-10-8-7-2-6-4-39-3-39v-7l11-7 21-11 7-6 1-7-9-4-21-5-18-5-7-7-6-3h-3l3 4-10-8-6-4-10-4-5-1h-11l-11 4-12 5h-10l-19-5-22-6-7-1-8-3-25-6-14-4-15-3-10-3-17-4-18-5-19-4-15-4-19-5-28-7-7-2-22-5-17-5-24-6-29-7-9-2h-4v-2l-15-3h-5v-2l-23-5-5-2-26-6-28-7-15-4-19-5-15-3-6-2Z"/>
  <path fill="#8cefb3" d="M339 4h8l24 5 35 9 64 16 64 16 60 15 47 12 28 7 48 12 71 18 24 6 42 11h13l11-5 12-3h8l12 3 14 8 14 12 7 6 18 5 25 6 5 4v7l-5 6-13 8-16 8-4 3h-2l4 54 4 34 5 5 11 11 6 10 2 9v10l-3 11-2 4v6l10 19 9 21 6 18 5 20 4 23 1 10v43l-5 10-9 10-9 6-9 4-20 4h-24l-13-4-8-7-8-16-5-17-5-26-2-23v-18l2-25 4-25 3-13v-6l-8-11-5-11-1-4v-14l4-11 9-13 3-4-1-21-2-19-2-22-2-7-3-1-14 7-13 7-21 12-14 7-8 5-11 6-23 12-6 5v17l4 36-1 9h-1l-2-14-2-24-1-5v-21h2l1-3 24-13 16-9h2v-2l16-8 17-9 22-12 7-4 1-2h2l1-5 9-1 6 5 1 3 2 25 1 20 2 19v12l-5 6h-2l-2 5-5 10-1 3v11l3 9 5 8 7 7v8l-3 9-3 16-2 11-2 21v32l3 29 4 15 3 9 4 11 6 9 7 3 5 2 18 2v1h-19l1 2h28l13-3h4v-2l10-4 10-9 6-11 1-5v-32l-2-22-7-34-2-6-3-10-4-10v-3h-2l-4-11-10-20-1-1v-7l4-9v-21l-5-10-9-10-8-7-2-6-4-39-3-39v-7l10-7 23-12 6-5 1-7-12-4-17-4-18-5-7-7-6-3v1l2 4-8-6-10-7-10-4-5-1h-11l-11 4-12 5h-10l-19-5-22-6-7-1-8-3-25-6-14-4-15-3-10-3-17-4-18-5-19-4-15-4-19-5-28-7-7-2-22-5-17-5-24-6-29-7-13-3v-2l-10-1-10-2v-2l-9-1-14-3-5-2-26-6-28-7-15-4-19-5-15-3-6-2h-15l-9 3-10 5-5 3h-2v2l-11 7-5 2v2l-16 10-11 8-12 8-11 8-6 4-15 10-15 10h-2v2l-11 7-12 8-11 8-6 4-9 6-15 10-6 4h-2v2l-11 7-10 7-12 8-15 10-11 8-14 9-10 7-16 11-6 4-10 7-6 5 1 5 8 4 24 7 16 5 21 6 12 3v2l9 1 11 4 26 8 13 4 8 2v2l8 1 16 5 13 3v2l6 1 5 5 1 8 2 60v18l-7 11-4 6-6 13-2 7-2 25-8 6-8 4-13 8-11 8-14 10-15 13-8 7-5 5-9 11h-2l-2 5-7 10-7 15-6 19-3 16-1 32h-1l-1-11v-19l3-19v-6l-1 2h-2l-1 11-1 9v35l1 14h2l3 14 6 16 7 13 7 11 10 14 7 7v2l4 2 8 8 14 10 1 2-5-1-13-10-11-10-7-8-10-13-12-20-8-18-5-16-2-12-1-11v-25l3-21 8-24 9-16 9-12 12-13 12-12 11-9 15-12 21-14 17-11 1-16 4-14 8-16 8-14v-31l-2-47-4-4-26-8-27-8-25-8-39-12-32-10-28-8-12-5-4-5-1-7 5-8 39-26 28-19 25-17 33-22 14-10 12-8 28-19 25-17 12-8 25-17 17-12 22-15 33-22 9-4Z"/>
  <path fill="#49d388" d="M899 213h5l-4 2h-3l-1 5h-2l-2 4-11 6-19 10-22 12-6 3h-3v2l-24 13-18 10-1 2h-2l1 21 2 15 2 23 2-4 2 21 1 17 3 7 9 10 7 8 12 14 11 13 15 20 11 18 12 23 9 21 9 27 7 27 6 26 5 16 10 21 9 14 11 14 9 10v2l4 2 2 4 4 2 14 9 15 8 4 5v9l-6 7-14 5-23 6-19 3v-2h-36l-25-5-19-5v-2l-8 1v58l-1 15-1 3-2 19-4 18-4 14-5 13-10 19-7 11-4 5-4 2h-7l-5-8-12-24-10-17-9-13-4-5-2-1-3 15-5 15-5 12-11 23-10 17-13 17-11 13-7 6h-9l-6-7-11-23-11-20-10-15-8-11-1-3-4 4-9 21-8 14-8 12-13 16-12 13-9 9-11 9-12 8-4 2h-7l-3-3-6-18v-3l-6 3-6 7-8 7-7 8-4 2v2l-8 7-16 13-18 13-19 11-5 2h-10l-7-6-2-7-1-5-1-11 2-6h-2l1-7h1l4 20 6 14v2l11-1v-2l14-7 14-9 12-9h2v-2l8-6 13-12 18-18 7-8 4-4h5l4 7 4 13 1 6 10-4 16-12 15-14 11-12 7-9 11-17 8-16 5-10 7-14 5-1 7 8 8 10 6 9 6 11 1 4h2l9 19v3h2l3 8v3h2l3 5 7-1 7-7 8-10h2l2-5 9-13 8-14 3-5 4-10 3-6 4-10 3-10h2l2-11 3-13 2-6 5 1 6 7 9 12 8 13 5 9 6 12 8 16 3 1 5-5 6-8 10-19 5-12 2-9h2l1-9 2-10 1-10 1-1 2-16 1-15v-39l-1-23 2-3 10 1v2l9 1 12 3 17 3 19 3h23l12-2 17-3 13-3 11-4 2-2v-5l-8-5-7-3v-2l-6-2-5-4-4-3v-2l-3-1-5-5-11-12-10-14-8-12-8-14-6-14-2-9-3-9-4-19-3-12-1-8h-2l-3-13-2-9-2-3-9-24-10-21-8-14-8-12-8-11-8-10-13-16-12-14-10-11-6-7-1-3-3-50-2-9-3-30v-10l6-7 16-8 12-7 11-6 8-4h2v-2l8-4 19-10 4-3 6-3 11-6Z"/>
  <path fill="#d9fbe6" d="M422 174h46l14 1 41 6 26 6 9 3 19 5 9 3v1l-13-1-49-6-18-1h-55l-26 2-13 1-15 3-12 2h-6v2l-21 4-13 4-10 4-11 3h-3v2l-9 3h-3v2l-11 4-19 10-18 10-5 4v21l2 46v20l-9 6-9 7-1 2h-2l-1-33-1-4-2-37v-34l8-7 9-8 6-4 13-8 11-6 16-8 13-5 10-4h4v-2l25-7 20-4 6-2 23-4Z"/>
  <path fill="#68e6a1" d="m774 115 13 1 27 7 9 3 22 5 12 3h7l16-5h3v-2l3-1h16v-2l10 3 12 7 14 12 7 6 18 5 25 6 5 4v7l-5 6-13 8-16 8-4 3h-2l4 54 4 34 5 5 11 11 6 10 2 9v10l-3 11-2 4v6l10 19 9 21 6 18 5 20 4 23 1 10v43l-5 10-9 10-9 6-9 4-20 4h-24l-4-2-4-4v-2l2-1-1-2 7 1 1 1 18 2v1h-19l1 2h28l13-3h4v-2l10-4 10-9 6-11 1-5v-32l-2-22-7-34-2-6-3-10-4-10v-3h-2l-4-11-10-20-1-1v-7l4-9v-21l-5-10-9-10-8-7-2-6-4-39-3-39v-7l10-7 23-12 6-5 1-7-12-4-17-4-18-5-7-7-6-3v1l2 4-8-6-10-7-10-4-5-1h-11l-11 4-12 5h-10l-19-5-22-6-7-1-8-3-25-6-7-2 4-2v2h3Z"/>
  <path fill="#58e199" d="M899 213h5l-4 2h-3l-1 5h-2l-2 4-11 6-19 10-22 12-6 3h-3v2l-24 13-18 10-1 2h-2l1 21 2 15 2 23 2-4 2 21 1 17 3 7 9 10 7 8 12 14 11 13 15 20 11 18 12 23 9 21 9 27 7 27 6 26 5 16 10 21 9 14 11 14 9 10v2l4 2 2 4 4 2 14 9 15 8 4 5v9l-6 7-10 4-4-2 13-5 4-5v-7l-2-4-5-2-16-8-10-8-8-7-7-8-12-15-9-13-6-10-8-19-5-17-7-31-2-4-4-18-9-26-4-9-8-18-12-21-7-11-9-12-4-6-4-4-9-11-9-11-6-5-6-8-9-11-1-2-2-18-2 18h-1l-3-48-2-9-3-30v-10l6-7 16-8 12-7 11-6 8-4h2v-2l8-4 19-10 4-3 6-3 11-6Z"/>
</svg>
